<svg id="Layer_3" enable-background="new 0 0 64 64" height="512" viewBox="0 0 64 64" width="512" xmlns="http://www.w3.org/2000/svg"><g><path d="m48 17h-4v-2.994c1.212-.916 2-2.376 2-4.006 0-2.323-1.595-4.32-3.833-4.854-.606-.498-1.317-.842-2.089-1.01-1.257-1.792-3.65-2.605-5.741-1.838-1.424-1.296-3.548-1.67-5.337-.866-1.46-.655-3.144-.548-4.5.254-.763-.451-1.614-.686-2.5-.686-1.568 0-3.04.752-3.979 2-1.633-.027-3.163.802-4.099 2.137-2.267.498-3.922 2.509-3.922 4.863 0 1.632.787 3.099 2 4.017v41.125c-1.72.447-3 1.999-3 3.858 0 2.206 1.794 4 4 4h30c2.206 0 4-1.794 4-4 0-1.859-1.28-3.411-3-3.858v-7.142h4c3.86 0 7-3.141 7-7v-17c0-3.86-3.14-7-7-7zm-4 6h4c.551 0 1 .449 1 1v17c0 .552-.449 1-1 1h-4zm-29.353-15.959c.316-.038.596-.224.753-.501.585-1.037 1.766-1.664 2.89-1.509.003 0 .103.014.105.014.406.053.802-.145 1.002-.501.536-.953 1.533-1.544 2.603-1.544.675 0 1.322.234 1.872.678.366.296.891.296 1.257 0 .97-.783 2.267-.901 3.368-.259.312.181.695.181 1.007 0 1.306-.761 2.905-.42 3.819.71.303.375.831.482 1.256.25 1.484-.807 3.245-.217 4.021 1.16.157.278.437.464.753.502.636.076 1.215.34 1.675.765.14.129.314.216.502.25 1.431.256 2.47 1.494 2.47 2.944 0 1.654-1.346 3-3 3-.243 0-.502-.042-.815-.131-.266-.075-.552-.037-.79.105-.238.143-.405.378-.462.649-.188.89-.8 1.662-1.637 2.066-.466.226-.683.77-.5 1.254.136.359.204.714.204 1.057 0 .675-.234 1.322-.678 1.872-.296.367-.296.89 0 1.257.444.549.678 1.196.678 1.871 0 1.654-1.346 3-3 3s-3-1.346-3-3c0-.675.235-1.322.679-1.872.296-.366.295-.89 0-1.256-.274-.34-.467-.721-.572-1.133-.113-.444-.513-.752-.968-.752-.011 0-.021 0-.032 0-.061.002-.118.008-.107.013-.864 0-1.662-.369-2.248-1.038-.379-.435-1.126-.435-1.505 0-.585.669-1.383 1.038-2.247 1.038-1.07 0-2.067-.591-2.603-1.543-.202-.36-.696-.543-1.104-.488-.096.014-.192.031-.293.031-1.408 0-2.642-.999-2.933-2.376-.058-.271-.225-.506-.462-.649s-.524-.18-.79-.105c-.313.088-.572.13-.815.13-1.654 0-3-1.346-3-3 0-1.508 1.138-2.78 2.647-2.959zm.764 7.939c.778 1.796 2.577 3.02 4.589 3.02h.022c.938 1.248 2.41 2 3.978 2 1.086 0 2.138-.363 3-1.018.707.537 1.541.878 2.417.983.079.183.168.36.27.533-.451.764-.687 1.616-.687 2.502 0 2.757 2.243 5 5 5s5-2.243 5-5c0-.886-.235-1.737-.686-2.5.451-.763.686-1.614.686-2.5 0-.314-.032-.631-.096-.947.738-.529 1.322-1.25 1.683-2.073.487.045.96.012 1.414-.079v40.099h-28.001v-40.091c.452.088.924.119 1.411.071zm29.589 44.02c0 1.103-.897 2-2 2h-30c-1.103 0-2-.897-2-2s.897-2 2-2h30c1.103 0 2 .897 2 2zm8-18c0 2.757-2.243 5-5 5h-4v-2h4c1.654 0 3-1.346 3-3v-17c0-1.654-1.346-3-3-3h-4v-2h4c2.757 0 5 2.243 5 5z"/><path d="m19 53c1.654 0 3-1.346 3-3v-18c0-1.654-1.346-3-3-3s-3 1.346-3 3v18c0 1.654 1.346 3 3 3zm-1-21c0-.551.449-1 1-1s1 .449 1 1v18c0 .552-.449 1-1 1s-1-.448-1-1z"/><path d="m28 53c1.654 0 3-1.346 3-3v-18c0-1.654-1.346-3-3-3s-3 1.346-3 3v18c0 1.654 1.346 3 3 3zm-1-21c0-.551.449-1 1-1s1 .449 1 1v18c0 .552-.449 1-1 1s-1-.448-1-1z"/><path d="m37 53c1.654 0 3-1.346 3-3v-18c0-1.654-1.346-3-3-3s-3 1.346-3 3v18c0 1.654 1.346 3 3 3zm-1-21c0-.551.449-1 1-1s1 .449 1 1v18c0 .552-.449 1-1 1s-1-.448-1-1z"/></g></svg>